RobotoDelta-wdthmax.ufo
<glyph name="percent" format="1">
  <advance width="2307.84"/>
  <unicode hex="0025"/>
  <outline>
    <contour>
      <point x="70.0" y="1016.0" type="line" smooth="yes"/>
      <point x="70.0" y="856.0"/>
      <point x="289.24" y="660.0"/>
      <point x="495.0" y="660.0" type="qcurve" smooth="yes"/>
      <point x="700.76" y="660.0"/>
      <point x="919.0" y="856.0"/>
      <point x="919.0" y="1016.0" type="qcurve" smooth="yes"/>
      <point x="919.0" y="1120.0" type="line" smooth="yes"/>
      <point x="919.0" y="1280.0"/>
      <point x="700.76" y="1476.0"/>
      <point x="495.0" y="1476.0" type="qcurve" smooth="yes"/>
      <point x="289.24" y="1476.0"/>
      <point x="70.0" y="1280.0"/>
      <point x="70.0" y="1120.0" type="qcurve" smooth="yes"/>
    </contour>
    <contour>
      <point x="252.0" y="1016.0" type="qcurve" smooth="yes"/>
      <point x="252.0" y="1120.0" type="line" smooth="yes"/>
      <point x="252.0" y="1207.66"/>
      <point x="358.0" y="1320.6"/>
      <point x="495.0" y="1320.6" type="qcurve" smooth="yes"/>
      <point x="631.0" y="1320.6"/>
      <point x="737.0" y="1207.66"/>
      <point x="737.0" y="1120.0" type="qcurve" smooth="yes"/>
      <point x="737.0" y="1016.0" type="line" smooth="yes"/>
      <point x="737.0" y="928.34"/>
      <point x="631.0" y="815.4"/>
      <point x="495.0" y="815.4" type="qcurve" smooth="yes"/>
      <point x="358.0" y="815.4"/>
      <point x="252.0" y="928.34"/>
    </contour>
    <contour>
      <point x="545.6" y="62.5" type="line"/>
      <point x="687.9200000000001" y="-30.0" type="line"/>
      <point x="1756.96" y="1379.5" type="line"/>
      <point x="1620.64" y="1486.0" type="line"/>
    </contour>
    <contour>
      <point x="1388.8400000000001" y="335.1" type="line" smooth="yes"/>
      <point x="1388.8400000000001" y="148.1"/>
      <point x="1598.08" y="-20.900000000000002"/>
      <point x="1813.8400000000001" y="-20.900000000000002" type="qcurve" smooth="yes"/>
      <point x="2028.6" y="-20.900000000000002"/>
      <point x="2237.84" y="193.1"/>
      <point x="2237.84" y="352.1" type="qcurve" smooth="yes"/>
      <point x="2237.84" y="439.1" type="line" smooth="yes"/>
      <point x="2237.84" y="591.1"/>
      <point x="2028.6" y="795.1"/>
      <point x="1813.8400000000001" y="795.1" type="qcurve" smooth="yes"/>
      <point x="1598.08" y="795.1"/>
      <point x="1388.8400000000001" y="592.1"/>
      <point x="1388.8400000000001" y="439.1" type="qcurve" smooth="yes"/>
    </contour>
    <contour>
      <point x="1570.8400000000001" y="335.1" type="qcurve" smooth="yes"/>
      <point x="1570.8400000000001" y="439.1" type="line" smooth="yes"/>
      <point x="1570.8400000000001" y="523.76"/>
      <point x="1670.8400000000001" y="639.7"/>
      <point x="1813.8400000000001" y="639.7" type="qcurve" smooth="yes"/>
      <point x="1955.8400000000001" y="639.7"/>
      <point x="2055.84" y="516.76"/>
      <point x="2055.84" y="429.1" type="qcurve" smooth="yes"/>
      <point x="2055.84" y="335.1" type="line" smooth="yes"/>
      <point x="2055.84" y="251.44"/>
      <point x="1955.8400000000001" y="134.5"/>
      <point x="1813.8400000000001" y="134.5" type="qcurve" smooth="yes"/>
      <point x="1670.8400000000001" y="134.5"/>
      <point x="1570.8400000000001" y="213.44"/>
    </contour>
  </outline>
</glyph>
<glyph name="zero" format="1">
  <advance width="1156"/>
  <unicode hex="0030"/>
  <outline>
    <contour>
      <point x="41" y="520" type="line" smooth="yes"/>
      <point x="41" y="269"/>
      <point x="325" y="-30"/>
      <point x="577" y="-30" type="qcurve" smooth="yes"/>
      <point x="827" y="-30"/>
      <point x="1114" y="269"/>
      <point x="1114" y="520" type="qcurve" smooth="yes"/>
      <point x="1114" y="936" type="line" smooth="yes"/>
      <point x="1114" y="1185"/>
      <point x="827" y="1486"/>
      <point x="577" y="1486" type="qcurve" smooth="yes"/>
      <point x="325" y="1486"/>
      <point x="41" y="1185"/>
      <point x="41" y="936" type="qcurve" smooth="yes"/>
    </contour>
    <contour>
      <point x="245" y="510" type="qcurve" smooth="yes"/>
      <point x="245" y="946" type="line" smooth="yes"/>
      <point x="245" y="1112"/>
      <point x="407" y="1322"/>
      <point x="577" y="1322" type="qcurve" smooth="yes"/>
      <point x="747" y="1322"/>
      <point x="911" y="1112"/>
      <point x="911" y="946" type="qcurve" smooth="yes"/>
      <point x="911" y="510" type="line" smooth="yes"/>
      <point x="911" y="342"/>
      <point x="747" y="134"/>
      <point x="577" y="134" type="qcurve" smooth="yes"/>
      <point x="407" y="134"/>
      <point x="245" y="342"/>
    </contour>
  </outline>
</glyph>
<glyph name="one" format="1">
  <advance width="1156"/>
  <unicode hex="0031"/>
  <outline>
    <contour>
      <point x="537" y="0" type="line"/>
      <point x="739" y="0" type="line"/>
      <point x="739" y="1476" type="line"/>
      <point x="695" y="1476" type="line"/>
      <point x="99" y="1276" type="line"/>
      <point x="99" y="1086" type="line"/>
      <point x="537" y="1248" type="line"/>
    </contour>
  </outline>
</glyph>
<glyph name="two" format="1">
  <advance width="1156"/>
  <unicode hex="0032"/>
  <outline>
    <contour>
      <point x="42" y="0" type="line"/>
      <point x="1140" y="0" type="line"/>
      <point x="1140" y="162" type="line"/>
      <point x="310" y="162" type="line"/>
      <point x="785" y="594" type="line" smooth="yes"/>
      <point x="919" y="716"/>
      <point x="1096" y="945"/>
      <point x="1096" y="1088" type="qcurve" smooth="yes"/>
      <point x="1096" y="1248"/>
      <point x="815" y="1486"/>
      <point x="585" y="1486" type="qcurve" smooth="yes"/>
      <point x="345" y="1486"/>
      <point x="41" y="1222"/>
      <point x="41" y="1028" type="qcurve" smooth="yes"/>
      <point x="41" y="1018" type="line"/>
      <point x="241" y="1018" type="line"/>
      <point x="241" y="1028" type="line" smooth="yes"/>
      <point x="241" y="1159"/>
      <point x="432" y="1322"/>
      <point x="585" y="1322" type="qcurve" smooth="yes"/>
      <point x="731" y="1322"/>
      <point x="896" y="1176"/>
      <point x="896" y="1078" type="qcurve" smooth="yes"/>
      <point x="896" y="982"/>
      <point x="761" y="807"/>
      <point x="657" y="710" type="qcurve" smooth="yes"/>
      <point x="42" y="146" type="line"/>
    </contour>
  </outline>
</glyph>
<glyph name="three" format="1">
  <advance width="1156"/>
  <unicode hex="0033"/>
  <outline>
    <contour>
      <point x="11" y="382" type="line" smooth="yes"/>
      <point x="11" y="201"/>
      <point x="318" y="-30"/>
      <point x="559" y="-30" type="qcurve" smooth="yes"/>
      <point x="799" y="-30"/>
      <point x="1113" y="201"/>
      <point x="1113" y="402" type="qcurve" smooth="yes"/>
      <point x="1113" y="541"/>
      <point x="941" y="730"/>
      <point x="799" y="762" type="qcurve"/>
      <point x="799" y="766" type="line"/>
      <point x="931" y="816"/>
      <point x="1055" y="1000"/>
      <point x="1055" y="1099" type="qcurve" smooth="yes"/>
      <point x="1055" y="1269"/>
      <point x="777" y="1486"/>
      <point x="559" y="1486" type="qcurve" smooth="yes"/>
      <point x="340" y="1486"/>
      <point x="55" y="1259"/>
      <point x="55" y="1098" type="qcurve" smooth="yes"/>
      <point x="55" y="1088" type="line"/>
      <point x="252" y="1088" type="line"/>
      <point x="252" y="1098" type="line" smooth="yes"/>
      <point x="252" y="1206"/>
      <point x="425" y="1323"/>
      <point x="559" y="1323" type="qcurve" smooth="yes"/>
      <point x="693" y="1323"/>
      <point x="853" y="1207"/>
      <point x="853" y="1089" type="qcurve" smooth="yes"/>
      <point x="853" y="970"/>
      <point x="671" y="838"/>
      <point x="505" y="838" type="qcurve" smooth="yes"/>
      <point x="381" y="838" type="line"/>
      <point x="381" y="679" type="line"/>
      <point x="516" y="679" type="line" smooth="yes"/>
      <point x="696" y="679"/>
      <point x="909" y="540"/>
      <point x="909" y="402" type="qcurve" smooth="yes"/>
      <point x="909" y="264"/>
      <point x="718" y="133"/>
      <point x="559" y="133" type="qcurve" smooth="yes"/>
      <point x="400" y="133"/>
      <point x="207" y="263"/>
      <point x="207" y="382" type="qcurve" smooth="yes"/>
      <point x="207" y="392" type="line"/>
      <point x="11" y="392" type="line"/>
    </contour>
  </outline>
</glyph>
<glyph name="four" format="1">
  <advance width="1156"/>
  <unicode hex="0034"/>
  <outline>
    <contour>
      <point x="769" y="0" type="line"/>
      <point x="960" y="0" type="line"/>
      <point x="960" y="1456" type="line"/>
      <point x="773" y="1456" type="line"/>
      <point x="-17" y="474" type="line"/>
      <point x="-17" y="341" type="line"/>
      <point x="1189" y="341" type="line"/>
      <point x="1189" y="504" type="line"/>
      <point x="891" y="504" type="line"/>
      <point x="804" y="504" type="line"/>
      <point x="223" y="504" type="line"/>
      <point x="757" y="1170" type="line"/>
      <point x="769" y="1170" type="line"/>
      <point x="769" y="450" type="line"/>
      <point x="769" y="398" type="line"/>
    </contour>
  </outline>
</glyph>
<glyph name="five" format="1">
  <advance width="1390"/>
  <unicode hex="0035"/>
  <outline>
    <contour>
      <point x="148" y="367" type="line" smooth="yes"/>
      <point x="148" y="196"/>
      <point x="446" y="-30"/>
      <point x="687" y="-30" type="qcurve" smooth="yes"/>
      <point x="927" y="-30"/>
      <point x="1244" y="235"/>
      <point x="1244" y="465" type="qcurve" smooth="yes"/>
      <point x="1244" y="695"/>
      <point x="940" y="952"/>
      <point x="724" y="952" type="qcurve" smooth="yes"/>
      <point x="624" y="952"/>
      <point x="456" y="894"/>
      <point x="399" y="860" type="qcurve"/>
      <point x="443" y="1280" type="line"/>
      <point x="1158" y="1280" type="line"/>
      <point x="1158" y="1456" type="line"/>
      <point x="278" y="1456" type="line"/>
      <point x="204" y="728" type="line"/>
      <point x="358" y="658" type="line"/>
      <point x="429" y="722"/>
      <point x="584" y="788"/>
      <point x="686" y="788" type="qcurve" smooth="yes"/>
      <point x="843" y="788"/>
      <point x="1044" y="623"/>
      <point x="1044" y="465" type="qcurve" smooth="yes"/>
      <point x="1044" y="308"/>
      <point x="843" y="133"/>
      <point x="687" y="133" type="qcurve" smooth="yes"/>
      <point x="530" y="133"/>
      <point x="342" y="258"/>
      <point x="342" y="367" type="qcurve" smooth="yes"/>
      <point x="342" y="377" type="line"/>
      <point x="148" y="377" type="line"/>
    </contour>
  </outline>
</glyph>
<glyph name="six" format="1">
  <advance width="1156"/>
  <unicode hex="0036"/>
  <outline>
    <contour>
      <point x="11" y="614" type="line" smooth="yes"/>
      <point x="11" y="274"/>
      <point x="357" y="-30"/>
      <point x="598" y="-30" type="qcurve" smooth="yes"/>
      <point x="838" y="-30"/>
      <point x="1152" y="244"/>
      <point x="1152" y="464" type="qcurve" smooth="yes"/>
      <point x="1152" y="685"/>
      <point x="873" y="957"/>
      <point x="643" y="957" type="qcurve" smooth="yes"/>
      <point x="409" y="957"/>
      <point x="129" y="685"/>
      <point x="129" y="464" type="qcurve"/>
      <point x="203" y="464" type="line"/>
      <point x="203" y="622"/>
      <point x="442" y="794"/>
      <point x="597" y="794" type="qcurve" smooth="yes"/>
      <point x="766" y="794"/>
      <point x="952" y="622"/>
      <point x="952" y="464" type="qcurve" smooth="yes"/>
      <point x="952" y="307"/>
      <point x="766" y="133"/>
      <point x="597" y="133" type="qcurve" smooth="yes"/>
      <point x="430" y="133"/>
      <point x="209" y="347"/>
      <point x="209" y="604" type="qcurve" smooth="yes"/>
      <point x="209" y="654" type="line" smooth="yes"/>
      <point x="209" y="1001"/>
      <point x="591" y="1322"/>
      <point x="921" y="1322" type="qcurve" smooth="yes"/>
      <point x="943" y="1322" type="line"/>
      <point x="943" y="1486" type="line"/>
      <point x="921" y="1486" type="line" smooth="yes"/>
      <point x="484" y="1486"/>
      <point x="11" y="1024"/>
      <point x="11" y="644" type="qcurve" smooth="yes"/>
    </contour>
  </outline>
</glyph>
<glyph name="seven" format="1">
  <advance width="1390"/>
  <unicode hex="0037"/>
  <outline>
    <contour>
      <point x="398" y="0" type="line"/>
      <point x="606" y="0" type="line"/>
      <point x="1238" y="1345" type="line"/>
      <point x="1238" y="1456" type="line"/>
      <point x="130" y="1456" type="line"/>
      <point x="130" y="1292" type="line"/>
      <point x="1024" y="1292" type="line"/>
    </contour>
  </outline>
</glyph>
<glyph name="eight" format="1">
  <advance width="1156"/>
  <unicode hex="0038"/>
  <outline>
    <contour>
      <point x="35" y="386" type="qcurve" smooth="yes"/>
      <point x="35" y="188"/>
      <point x="353" y="-30"/>
      <point x="578" y="-30" type="qcurve" smooth="yes"/>
      <point x="803" y="-30"/>
      <point x="1122" y="188"/>
      <point x="1122" y="386" type="qcurve" smooth="yes"/>
      <point x="1122" y="516"/>
      <point x="957" y="700"/>
      <point x="833" y="743" type="qcurve"/>
      <point x="833" y="747" type="line"/>
      <point x="929" y="788"/>
      <point x="1069" y="967"/>
      <point x="1069" y="1087" type="qcurve" smooth="yes"/>
      <point x="1069" y="1267"/>
      <point x="781" y="1486"/>
      <point x="578" y="1486" type="qcurve" smooth="yes"/>
      <point x="375" y="1486"/>
      <point x="87" y="1267"/>
      <point x="87" y="1087" type="qcurve" smooth="yes"/>
      <point x="87" y="967"/>
      <point x="228" y="788"/>
      <point x="323" y="747" type="qcurve"/>
      <point x="323" y="743" type="line"/>
      <point x="199" y="700"/>
      <point x="35" y="516"/>
    </contour>
    <contour>
      <point x="233" y="397" type="qcurve" smooth="yes"/>
      <point x="233" y="516"/>
      <point x="426" y="664"/>
      <point x="578" y="664" type="qcurve" smooth="yes"/>
      <point x="731" y="664"/>
      <point x="924" y="515"/>
      <point x="924" y="397" type="qcurve" smooth="yes"/>
      <point x="924" y="278"/>
      <point x="731" y="132"/>
      <point x="578" y="132" type="qcurve" smooth="yes"/>
      <point x="426" y="132"/>
      <point x="233" y="279"/>
    </contour>
    <contour>
      <point x="281" y="1076" type="qcurve" smooth="yes"/>
      <point x="281" y="1184"/>
      <point x="449" y="1324"/>
      <point x="578" y="1324" type="qcurve" smooth="yes"/>
      <point x="708" y="1324"/>
      <point x="875" y="1184"/>
      <point x="875" y="1076" type="qcurve" smooth="yes"/>
      <point x="875" y="968"/>
      <point x="708" y="826"/>
      <point x="578" y="826" type="qcurve" smooth="yes"/>
      <point x="449" y="826"/>
      <point x="281" y="968"/>
    </contour>
  </outline>
</glyph>
<glyph name="nine" format="1">
  <advance width="1390"/>
  <unicode hex="0039"/>
  <outline>
    <contour>
      <point x="120" y="1002" type="qcurve" smooth="yes"/>
      <point x="120" y="786"/>
      <point x="401" y="519"/>
      <point x="628" y="519" type="qcurve" smooth="yes"/>
      <point x="862" y="519"/>
      <point x="1143" y="785"/>
      <point x="1143" y="1002" type="qcurve"/>
      <point x="1068" y="1002" type="line"/>
      <point x="1068" y="849"/>
      <point x="830" y="682"/>
      <point x="674" y="682" type="qcurve" smooth="yes"/>
      <point x="505" y="682"/>
      <point x="320" y="849"/>
      <point x="320" y="1002" type="qcurve" smooth="yes"/>
      <point x="320" y="1154"/>
      <point x="505" y="1323"/>
      <point x="674" y="1323" type="qcurve" smooth="yes"/>
      <point x="842" y="1323"/>
      <point x="1062" y="1109"/>
      <point x="1062" y="852" type="qcurve" smooth="yes"/>
      <point x="1062" y="802" type="line" smooth="yes"/>
      <point x="1062" y="455"/>
      <point x="681" y="134"/>
      <point x="351" y="134" type="qcurve" smooth="yes"/>
      <point x="328" y="134" type="line"/>
      <point x="328" y="-30" type="line"/>
      <point x="351" y="-30" type="line" smooth="yes"/>
      <point x="788" y="-30"/>
      <point x="1261" y="432"/>
      <point x="1261" y="812" type="qcurve" smooth="yes"/>
      <point x="1261" y="842" type="line" smooth="yes"/>
      <point x="1261" y="1182"/>
      <point x="914" y="1486"/>
      <point x="674" y="1486" type="qcurve" smooth="yes"/>
      <point x="434" y="1486"/>
      <point x="120" y="1218"/>
    </contour>
  </outline>
</glyph>
<glyph name="colon" format="1">
  <advance width="620.88"/>
  <unicode hex="003A"/>
  <outline>
    <contour>
      <point x="176.0" y="103.48" type="qcurve" smooth="yes"/>
      <point x="176.0" y="51.78"/>
      <point x="245.4" y="-22.0"/>
      <point x="310.44" y="-22.0" type="qcurve" smooth="yes"/>
      <point x="375.48" y="-22.0"/>
      <point x="444.88" y="51.78"/>
      <point x="444.88" y="103.48" type="qcurve" smooth="yes"/>
      <point x="444.88" y="155.18"/>
      <point x="375.48" y="228.96"/>
      <point x="310.44" y="228.96" type="qcurve" smooth="yes"/>
      <point x="245.4" y="228.96"/>
      <point x="176.0" y="155.18"/>
    </contour>
    <contour>
      <point x="176.0" y="943.78" type="qcurve" smooth="yes"/>
      <point x="176.0" y="892.08"/>
      <point x="245.4" y="818.3"/>
      <point x="310.44" y="818.3" type="qcurve" smooth="yes"/>
      <point x="375.48" y="818.3"/>
      <point x="444.88" y="892.08"/>
      <point x="444.88" y="943.78" type="qcurve" smooth="yes"/>
      <point x="444.88" y="995.48"/>
      <point x="375.48" y="1069.26"/>
      <point x="310.44" y="1069.26" type="qcurve" smooth="yes"/>
      <point x="245.4" y="1069.26"/>
      <point x="176.0" y="995.48"/>
    </contour>
  </outline>
</glyph>
<glyph name="C" format="1">
  <advance width="1655.08"/>
  <unicode hex="0043"/>
  <outline>
    <contour>
      <point x="115.0" y="712.0" type="line" smooth="yes"/>
      <point x="115.0" y="361.8426966292135"/>
      <point x="557.4" y="-30.0"/>
      <point x="890.9200000000001" y="-30.0" type="qcurve" smooth="yes"/>
      <point x="1225.3813718411552" y="-30.0"/>
      <point x="1583.8400000000001" y="257.61"/>
      <point x="1604.08" y="460.5" type="qcurve" smooth="yes"/>
      <point x="1605.08" y="470.5" type="line"/>
      <point x="1392.92" y="470.5" type="line"/>
      <point x="1391.92" y="460.5" type="line" smooth="yes"/>
      <point x="1380.2060588593172" y="342.64544144487786"/>
      <point x="1139.761059602649" y="144.44"/>
      <point x="890.9200000000001" y="144.44" type="qcurve" smooth="yes"/>
      <point x="644.4287719298245" y="144.44"/>
      <point x="328.92" y="446.8624817518248"/>
      <point x="328.92" y="712.0" type="qcurve" smooth="yes"/>
      <point x="328.92" y="744.0" type="line" smooth="yes"/>
      <point x="328.92" y="1009.1229197080291"/>
      <point x="644.4287719298245" y="1311.56"/>
      <point x="890.9200000000001" y="1311.56" type="qcurve" smooth="yes"/>
      <point x="1139.761059602649" y="1311.56"/>
      <point x="1380.2060588593172" y="1113.3545585551221"/>
      <point x="1391.92" y="995.5" type="qcurve" smooth="yes"/>
      <point x="1392.92" y="985.5" type="line"/>
      <point x="1605.08" y="985.5" type="line"/>
      <point x="1604.08" y="995.5" type="line" smooth="yes"/>
      <point x="1583.8400000000001" y="1198.39"/>
      <point x="1225.3813718411552" y="1486.0"/>
      <point x="890.9200000000001" y="1486.0" type="qcurve" smooth="yes"/>
      <point x="557.4" y="1486.0"/>
      <point x="115.0" y="1094.0"/>
      <point x="115.0" y="744.0" type="qcurve" smooth="yes"/>
    </contour>
    <contour>
      <point x="891.1700000000001" y="0.0" type="move" name="bottom"/>
    </contour>
  </outline>
</glyph>
<glyph name="b" format="1">
  <advance width="1544.68"/>
  <unicode hex="0062"/>
  <outline>
    <contour>
      <point x="148.0" y="0.0" type="line"/>
      <point x="335.48" y="0.0" type="line"/>
      <point x="346.48" y="167.0" type="line"/>
      <point x="347.48" y="167.0" type="line"/>
      <point x="412.3247924506823" y="89.81981587763656"/>
      <point x="672.118691588785" y="-20.0"/>
      <point x="847.28" y="-20.0" type="qcurve" smooth="yes"/>
      <point x="1125.88" y="-20.0"/>
      <point x="1459.68" y="280.0"/>
      <point x="1459.68" y="510.0" type="qcurve" smooth="yes"/>
      <point x="1459.68" y="542.0" type="line" smooth="yes"/>
      <point x="1459.68" y="772.0"/>
      <point x="1125.88" y="1072.0"/>
      <point x="847.28" y="1072.0" type="qcurve" smooth="yes"/>
      <point x="671.8411347517731" y="1072.0"/>
      <point x="428.0551545234017" y="975.8208943623252"/>
      <point x="352.48" y="898.0" type="qcurve"/>
      <point x="352.48" y="1536.0" type="line"/>
      <point x="148.0" y="1536.0" type="line"/>
    </contour>
    <contour>
      <point x="352.48" y="352.62" type="qcurve"/>
      <point x="352.48" y="699.38" type="line"/>
      <point x="401.91199548063923" y="782.5156287628931"/>
      <point x="627.7862330623307" y="909.38"/>
      <point x="788.48" y="909.38" type="qcurve" smooth="yes"/>
      <point x="1027.6881218274111" y="909.38"/>
      <point x="1250.48" y="697.5"/>
      <point x="1250.48" y="542.0" type="qcurve" smooth="yes"/>
      <point x="1250.48" y="510.0" type="line" smooth="yes"/>
      <point x="1250.48" y="354.5"/>
      <point x="1027.6881218274111" y="142.62"/>
      <point x="788.48" y="142.62" type="qcurve" smooth="yes"/>
      <point x="627.7862330623307" y="142.62"/>
      <point x="402.0027689766918" y="269.3317067210184"/>
    </contour>
  </outline>
</glyph>
<glyph name="d" format="1">
  <advance width="1544.68"/>
  <unicode hex="0064"/>
  <outline>
    <contour>
      <point x="85.0" y="510.0" type="line" smooth="yes"/>
      <point x="85.0" y="280.0"/>
      <point x="418.8" y="-20.0"/>
      <point x="697.4" y="-20.0" type="qcurve" smooth="yes"/>
      <point x="872.08" y="-20.0"/>
      <point x="1132.08" y="89.82"/>
      <point x="1197.2" y="167.0" type="qcurve"/>
      <point x="1198.2" y="167.0" type="line"/>
      <point x="1209.2" y="0.0" type="line"/>
      <point x="1396.68" y="0.0" type="line"/>
      <point x="1396.68" y="1536.0" type="line"/>
      <point x="1192.2" y="1536.0" type="line"/>
      <point x="1192.2" y="898.0" type="line"/>
      <point x="1116.96" y="976.27"/>
      <point x="873.08" y="1072.0"/>
      <point x="697.4" y="1072.0" type="qcurve" smooth="yes"/>
      <point x="418.8" y="1072.0"/>
      <point x="85.0" y="772.0"/>
      <point x="85.0" y="542.0" type="qcurve" smooth="yes"/>
    </contour>
    <contour>
      <point x="294.20000000000005" y="510.0" type="qcurve" smooth="yes"/>
      <point x="294.20000000000005" y="542.0" type="line" smooth="yes"/>
      <point x="294.20000000000005" y="697.5"/>
      <point x="517.2" y="909.38"/>
      <point x="756.2" y="909.38" type="qcurve" smooth="yes"/>
      <point x="917.2" y="909.38"/>
      <point x="1143.2" y="782.38"/>
      <point x="1192.2" y="699.38" type="qcurve"/>
      <point x="1192.2" y="352.62" type="line"/>
      <point x="1142.2" y="269.62"/>
      <point x="917.2" y="142.62"/>
      <point x="756.2" y="142.62" type="qcurve" smooth="yes"/>
      <point x="517.2" y="142.62"/>
      <point x="294.20000000000005" y="354.5"/>
    </contour>
  </outline>
</glyph>
<glyph name="braceright" format="1">
  <advance width="714.64"/>
  <unicode hex="007D"/>
  <outline>
    <contour>
      <point x="-68.0" y="-312.0" type="line"/>
      <point x="254.08" y="-312.0"/>
      <point x="560.52" y="-30.8"/>
      <point x="497.04" y="163.0" type="qcurve" smooth="yes"/>
      <point x="442.24" y="330.4" type="line" smooth="yes"/>
      <point x="411.24" y="437.31"/>
      <point x="565.5600000000001" y="504.4"/>
      <point x="703.64" y="504.4" type="qcurve"/>
      <point x="703.64" y="643.6" type="line"/>
      <point x="565.5600000000001" y="643.6"/>
      <point x="411.24" y="710.69"/>
      <point x="442.24" y="817.6" type="qcurve" smooth="yes"/>
      <point x="497.04" y="985.0" type="line" smooth="yes"/>
      <point x="560.52" y="1178.8"/>
      <point x="254.08" y="1460.0"/>
      <point x="-68.0" y="1460.0" type="qcurve"/>
      <point x="-68.0" y="1305.54" type="line"/>
      <point x="174.28" y="1305.54"/>
      <point x="342.08" y="1133.51"/>
      <point x="292.8" y="981.4" type="qcurve" smooth="yes"/>
      <point x="238.0" y="814.0" type="line" smooth="yes"/>
      <point x="213.0" y="730.91"/>
      <point x="284.0" y="590.0"/>
      <point x="379.0" y="574.0" type="qcurve"/>
      <point x="284.0" y="558.0"/>
      <point x="213.0" y="417.09"/>
      <point x="238.0" y="334.0" type="qcurve" smooth="yes"/>
      <point x="292.8" y="166.6" type="line" smooth="yes"/>
      <point x="342.08" y="14.490000000000006"/>
      <point x="174.28" y="-157.54"/>
      <point x="-68.0" y="-157.54" type="qcurve"/>
    </contour>
  </outline>
</glyph>
<glyph name="asciitilde" format="1">
  <advance width="1462.0"/>
  <unicode hex="007E"/>
  <outline>
    <contour>
      <point x="50.0" y="432.4" type="qcurve"/>
      <point x="275.0" y="432.4" type="line"/>
      <point x="275.0" y="511.68"/>
      <point x="350.0" y="624.6"/>
      <point x="442.0" y="624.6" type="qcurve" smooth="yes"/>
      <point x="547.0" y="624.6"/>
      <point x="840.0" y="418.6"/>
      <point x="1020.0" y="418.6" type="qcurve" smooth="yes"/>
      <point x="1205.64" y="418.6"/>
      <point x="1412.0" y="639.91"/>
      <point x="1412.0" y="791.6" type="qcurve"/>
      <point x="1187.0" y="791.6" type="line"/>
      <point x="1187.0" y="712.32"/>
      <point x="1112.0" y="599.4"/>
      <point x="1020.0" y="599.4" type="qcurve" smooth="yes"/>
      <point x="915.0" y="599.4"/>
      <point x="622.0" y="805.4"/>
      <point x="442.0" y="805.4" type="qcurve" smooth="yes"/>
      <point x="256.36" y="805.4"/>
      <point x="50.0" y="584.0"/>
    </contour>
  </outline>
</glyph>
<glyph name="dieresis" format="1">
  <advance width="1078"/>
  <unicode hex="00A8"/>
  <outline>
    <contour>
      <point x="178" y="1258" type="qcurve" smooth="yes"/>
      <point x="178" y="1210"/>
      <point x="238" y="1144"/>
      <point x="292" y="1144" type="qcurve" smooth="yes"/>
      <point x="346" y="1144"/>
      <point x="406" y="1210"/>
      <point x="406" y="1258" type="qcurve" smooth="yes"/>
      <point x="406" y="1306"/>
      <point x="346" y="1372"/>
      <point x="292" y="1372" type="qcurve" smooth="yes"/>
      <point x="238" y="1372"/>
      <point x="178" y="1306"/>
    </contour>
    <contour>
      <point x="672" y="1258" type="qcurve" smooth="yes"/>
      <point x="672" y="1210"/>
      <point x="732" y="1144"/>
      <point x="786" y="1144" type="qcurve" smooth="yes"/>
      <point x="840" y="1144"/>
      <point x="900" y="1210"/>
      <point x="900" y="1258" type="qcurve" smooth="yes"/>
      <point x="900" y="1306"/>
      <point x="840" y="1372"/>
      <point x="786" y="1372" type="qcurve" smooth="yes"/>
      <point x="732" y="1372"/>
      <point x="672" y="1306"/>
    </contour>
  </outline>
</glyph>
<glyph name="copyright" format="1">
  <advance width="2146.84"/>
  <unicode hex="00A9"/>
  <outline>
    <contour>
      <point x="94.0" y="698.0" type="qcurve" smooth="yes"/>
      <point x="94.0" y="364.0"/>
      <point x="674.6800000000001" y="-82.0"/>
      <point x="1072.92" y="-82.0" type="qcurve" smooth="yes"/>
      <point x="1471.16" y="-82.0"/>
      <point x="2052.84" y="364.0"/>
      <point x="2052.84" y="698.0" type="qcurve" smooth="yes"/>
      <point x="2052.84" y="1032.0"/>
      <point x="1471.16" y="1478.0"/>
      <point x="1072.92" y="1478.0" type="qcurve" smooth="yes"/>
      <point x="674.6800000000001" y="1478.0"/>
      <point x="94.0" y="1032.0"/>
    </contour>
    <contour>
      <point x="255.92000000000002" y="698.0" type="qcurve" smooth="yes"/>
      <point x="255.92000000000002" y="960.02"/>
      <point x="723.92" y="1327.14"/>
      <point x="1072.92" y="1327.14" type="qcurve" smooth="yes"/>
      <point x="1422.92" y="1327.14"/>
      <point x="1890.92" y="960.02"/>
      <point x="1890.92" y="698.0" type="qcurve" smooth="yes"/>
      <point x="1890.92" y="435.98"/>
      <point x="1422.92" y="68.86"/>
      <point x="1072.92" y="68.86" type="qcurve" smooth="yes"/>
      <point x="723.92" y="68.86"/>
      <point x="255.92000000000002" y="435.98"/>
    </contour>
    <contour>
      <point x="566.92" y="668.0" type="line" smooth="yes"/>
      <point x="566.92" y="488.0"/>
      <point x="856.9200000000001" y="264.0"/>
      <point x="1074.92" y="264.0" type="qcurve" smooth="yes"/>
      <point x="1279.92" y="264.0"/>
      <point x="1546.92" y="441.0583544303797"/>
      <point x="1546.92" y="571.8" type="qcurve" smooth="yes"/>
      <point x="1546.92" y="581.8" type="line"/>
      <point x="1379.6399999999999" y="581.8" type="line"/>
      <point x="1379.6399999999999" y="571.8" type="line" smooth="yes"/>
      <point x="1379.6399999999999" y="492.6385714285714"/>
      <point x="1217.64" y="407.6"/>
      <point x="1074.92" y="407.6" type="qcurve" smooth="yes"/>
      <point x="918.32" y="407.6"/>
      <point x="742.44" y="549.6363636363636"/>
      <point x="742.44" y="668.0" type="qcurve" smooth="yes"/>
      <point x="742.44" y="748.0" type="line" smooth="yes"/>
      <point x="742.44" y="866.3636363636364"/>
      <point x="918.32" y="1008.4"/>
      <point x="1074.92" y="1008.4" type="qcurve" smooth="yes"/>
      <point x="1217.64" y="1008.4"/>
      <point x="1379.6399999999999" y="923.3434482758621"/>
      <point x="1379.6399999999999" y="844.2" type="qcurve" smooth="yes"/>
      <point x="1379.6399999999999" y="834.2" type="line"/>
      <point x="1546.92" y="834.2" type="line"/>
      <point x="1546.92" y="844.2" type="line" smooth="yes"/>
      <point x="1546.92" y="974.964705882353"/>
      <point x="1279.92" y="1152.0"/>
      <point x="1074.92" y="1152.0" type="qcurve" smooth="yes"/>
      <point x="856.9200000000001" y="1152.0"/>
      <point x="566.92" y="928.0"/>
      <point x="566.92" y="748.0" type="qcurve" smooth="yes"/>
    </contour>
  </outline>
</glyph>
<glyph name="registered" format="1">
  <advance width="2146.84"/>
  <unicode hex="00AE"/>
  <outline>
    <contour>
      <point x="94.0" y="698.0" type="qcurve" smooth="yes"/>
      <point x="94.0" y="364.0"/>
      <point x="674.6800000000001" y="-82.0"/>
      <point x="1072.92" y="-82.0" type="qcurve" smooth="yes"/>
      <point x="1471.16" y="-82.0"/>
      <point x="2052.84" y="364.0"/>
      <point x="2052.84" y="698.0" type="qcurve" smooth="yes"/>
      <point x="2052.84" y="1032.0"/>
      <point x="1471.16" y="1478.0"/>
      <point x="1072.92" y="1478.0" type="qcurve" smooth="yes"/>
      <point x="674.6800000000001" y="1478.0"/>
      <point x="94.0" y="1032.0"/>
    </contour>
    <contour>
      <point x="255.92000000000002" y="698.0" type="qcurve" smooth="yes"/>
      <point x="255.92000000000002" y="960.02"/>
      <point x="724.2773264781491" y="1327.14"/>
      <point x="1072.92" y="1327.14" type="qcurve" smooth="yes"/>
      <point x="1422.5913735558408" y="1327.14"/>
      <point x="1890.92" y="960.02"/>
      <point x="1890.92" y="698.0" type="qcurve" smooth="yes"/>
      <point x="1890.92" y="435.98"/>
      <point x="1422.5913735558408" y="68.86"/>
      <point x="1072.92" y="68.86" type="qcurve" smooth="yes"/>
      <point x="724.2773264781491" y="68.86"/>
      <point x="255.92000000000002" y="435.98"/>
    </contour>
    <contour>
      <point x="690.08" y="284.0" type="line"/>
      <point x="857.92" y="284.0" type="line"/>
      <point x="857.92" y="588.4" type="line"/>
      <point x="1084.92" y="588.4" type="line" smooth="yes"/>
      <point x="1265.08" y="588.4"/>
      <point x="1498.92" y="739.3394736842105"/>
      <point x="1498.92" y="865.2" type="qcurve" smooth="yes"/>
      <point x="1498.92" y="991.0754545454546"/>
      <point x="1265.1373913043478" y="1132.0"/>
      <point x="1084.92" y="1132.0" type="qcurve" smooth="yes"/>
      <point x="690.08" y="1132.0" type="line"/>
    </contour>
    <contour>
      <point x="857.92" y="720.18" type="line"/>
      <point x="857.92" y="1000.22" type="line"/>
      <point x="1084.92" y="1000.22" type="line" smooth="yes"/>
      <point x="1205.2170297029704" y="1000.22"/>
      <point x="1327.92" y="929.2018181818182"/>
      <point x="1327.92" y="860.2" type="qcurve" smooth="yes"/>
      <point x="1327.92" y="791.1981818181819"/>
      <point x="1205.2170297029704" y="720.18"/>
      <point x="1084.92" y="720.18" type="qcurve" smooth="yes"/>
    </contour>
    <contour>
      <point x="1374.32" y="284.0" type="line"/>
      <point x="1570.92" y="284.0" type="line"/>
      <point x="1290.92" y="657.0" type="line"/>
      <point x="1104.32" y="657.0" type="line"/>
    </contour>
  </outline>
</glyph>
<glyph name="macron" format="1">
  <advance width="1102"/>
  <unicode hex="00AF"/>
  <outline>
    <contour>
      <point x="197" y="1176" type="line"/>
      <point x="905" y="1176" type="line"/>
      <point x="905" y="1333" type="line"/>
      <point x="197" y="1333" type="line"/>
    </contour>
  </outline>
</glyph>
<glyph name="questiondown" format="1">
  <advance width="1009.76"/>
  <unicode hex="00BF"/>
  <outline>
    <contour>
      <point x="-13.0" y="80.5" type="qcurve" smooth="yes"/>
      <point x="-13.0" y="-77.3"/>
      <point x="264.92" y="-300.0"/>
      <point x="512.76" y="-300.0" type="qcurve" smooth="yes"/>
      <point x="759.48" y="-300.0"/>
      <point x="1045.76" y="-87.3"/>
      <point x="1045.76" y="65.95" type="qcurve" smooth="yes"/>
      <point x="1045.76" y="87.75" type="line"/>
      <point x="839.76" y="87.75" type="line"/>
      <point x="839.76" y="65.95" type="line" smooth="yes"/>
      <point x="839.76" y="-17.799999999999994"/>
      <point x="672.76" y="-129.18"/>
      <point x="512.76" y="-129.18" type="qcurve" smooth="yes"/>
      <point x="351.76" y="-129.18"/>
      <point x="193.88000000000002" y="-8.699999999999994"/>
      <point x="193.88000000000002" y="80.5" type="qcurve" smooth="yes"/>
      <point x="193.88000000000002" y="177.7"/>
      <point x="332.84000000000003" y="311.2"/>
      <point x="442.40000000000003" y="395.67" type="qcurve" smooth="yes"/>
      <point x="556.28" y="473.96999999999997"/>
      <point x="658.0400000000001" y="625.85"/>
      <point x="658.0400000000001" y="752.4" type="qcurve" smooth="yes"/>
      <point x="658.0400000000001" y="762.4" type="line"/>
      <point x="451.16" y="762.4" type="line"/>
      <point x="451.16" y="752.4" type="line" smooth="yes"/>
      <point x="451.16" y="679.3"/>
      <point x="377.2" y="566.73"/>
      <point x="255.24" y="477.26" type="qcurve" smooth="yes"/>
      <point x="159.72" y="413.62"/>
      <point x="-13.0" y="208.14000000000001"/>
    </contour>
    <contour>
      <point x="411.88" y="1072.52" type="qcurve" smooth="yes"/>
      <point x="411.88" y="1020.8199999999999"/>
      <point x="481.28000000000003" y="947.04"/>
      <point x="546.32" y="947.04" type="qcurve" smooth="yes"/>
      <point x="611.36" y="947.04"/>
      <point x="680.76" y="1020.8199999999999"/>
      <point x="680.76" y="1072.52" type="qcurve" smooth="yes"/>
      <point x="680.76" y="1124.22"/>
      <point x="611.36" y="1198.0"/>
      <point x="546.32" y="1198.0" type="qcurve" smooth="yes"/>
      <point x="481.28000000000003" y="1198.0"/>
      <point x="411.88" y="1124.22"/>
    </contour>
  </outline>
</glyph>
<glyph name="multiply" format="1">
  <advance width="1170.0"/>
  <unicode hex="00D7"/>
  <outline>
    <contour>
      <point x="22.75999999999999" y="229.68" type="line"/>
      <point x="149.24" y="102.32" type="line"/>
      <point x="1147.24" y="1120.32" type="line"/>
      <point x="1020.76" y="1247.68" type="line"/>
    </contour>
    <contour>
      <point x="22.39999999999999" y="1118.05" type="line"/>
      <point x="1019.4" y="102.05" type="line"/>
      <point x="1147.6" y="231.95" type="line"/>
      <point x="150.60000000000002" y="1247.95" type="line"/>
    </contour>
  </outline>
</glyph>
<glyph name="eth" format="1">
  <advance width="1406.8"/>
  <unicode hex="00F0"/>
  <outline>
    <contour>
      <point x="80.0" y="474.0" type="qcurve" smooth="yes"/>
      <point x="80.0" y="249.0"/>
      <point x="423.92" y="-30.0"/>
      <point x="682.2" y="-30.0" type="qcurve" smooth="yes"/>
      <point x="940.1317697228145" y="-30.0"/>
      <point x="1286.8" y="324.0"/>
      <point x="1286.8" y="724.0" type="qcurve" smooth="yes"/>
      <point x="1286.8" y="804.0" type="line" smooth="yes"/>
      <point x="1286.8" y="1204.0"/>
      <point x="992.0895705521473" y="1556.0"/>
      <point x="657.2" y="1556.0" type="qcurve" smooth="yes"/>
      <point x="490.6545454545455" y="1556.0"/>
      <point x="227.24402396275534" y="1449.9440239627554"/>
      <point x="151.4" y="1369.1" type="qcurve"/>
      <point x="274.8" y="1239.92" type="line"/>
      <point x="338.1508774500251" y="1301.3027846290565"/>
      <point x="528.0108108108109" y="1387.92"/>
      <point x="657.2" y="1387.92" type="qcurve" smooth="yes"/>
      <point x="881.4105263157895" y="1387.92"/>
      <point x="1083.2" y="1148.131506849315"/>
      <point x="1083.2" y="814.0" type="qcurve" smooth="yes"/>
      <point x="1083.2" y="714.0" type="line" smooth="yes"/>
      <point x="1083.2" y="379.84846416382254"/>
      <point x="865.1915492957747" y="138.08"/>
      <point x="682.2" y="138.08" type="qcurve" smooth="yes"/>
      <point x="496.52173913043475" y="138.08"/>
      <point x="289.20000000000005" y="313.80693641618495"/>
      <point x="289.20000000000005" y="474.0" type="qcurve" smooth="yes"/>
      <point x="289.20000000000005" y="634.1651162790698"/>
      <point x="496.52173913043475" y="807.92"/>
      <point x="682.2" y="807.92" type="qcurve" smooth="yes"/>
      <point x="839.4983425414366" y="807.92"/>
      <point x="1083.2" y="634.1651162790698"/>
      <point x="1083.2" y="474.0" type="qcurve"/>
      <point x="1188.0" y="474.0" type="line"/>
      <point x="1188.0" y="699.0"/>
      <point x="884.5500000000001" y="976.0"/>
      <point x="632.2" y="976.0" type="qcurve" smooth="yes"/>
      <point x="385.68" y="976.0"/>
      <point x="80.0" y="699.0"/>
    </contour>
    <contour>
      <point x="569.2" y="1190.0" type="line"/>
      <point x="652.8" y="1063.7" type="line"/>
      <point x="1330.2" y="1423.7" type="line"/>
      <point x="1246.6" y="1550.0" type="line"/>
    </contour>
  </outline>
</glyph>
<glyph name="tilde" format="1">
  <advance width="1200.0"/>
  <unicode hex="02DC"/>
  <outline>
    <contour>
      <point x="148.0" y="1152.74" type="qcurve"/>
      <point x="284.0" y="1144.4" type="line"/>
      <point x="284.0" y="1192.4"/>
      <point x="330.0" y="1254.4"/>
      <point x="380.0" y="1254.4" type="qcurve" smooth="yes"/>
      <point x="467.84000000000003" y="1254.4"/>
      <point x="742.6" y="1156.4"/>
      <point x="836.8" y="1156.4" type="qcurve" smooth="yes"/>
      <point x="929.9200000000001" y="1156.4"/>
      <point x="1054.0" y="1300.243870967742"/>
      <point x="1054.0" y="1409.06" type="qcurve"/>
      <point x="918.0" y="1417.4" type="line"/>
      <point x="918.0" y="1369.4"/>
      <point x="872.0" y="1307.4"/>
      <point x="822.0" y="1307.4" type="qcurve" smooth="yes"/>
      <point x="734.16" y="1307.4"/>
      <point x="459.4" y="1405.4"/>
      <point x="365.2" y="1405.4" type="qcurve" smooth="yes"/>
      <point x="272.08" y="1405.4"/>
      <point x="148.0" y="1261.6490322580646"/>
    </contour>
    <contour>
      <point x="600.0" y="1052.0" type="move" name="_top"/>
    </contour>
  </outline>
</glyph>
<glyph name="Germandbls" format="1">
  <advance width="1656.88"/>
  <unicode hex="1E9E"/>
  <outline>
    <contour>
      <point x="170.0" y="0.0" type="line"/>
      <point x="380.96000000000004" y="0.0" type="line"/>
      <point x="380.96000000000004" y="1031.0" type="line" smooth="yes"/>
      <point x="380.96000000000004" y="1170.6788636363635"/>
      <point x="603.6457142857143" y="1312.46"/>
      <point x="813.96" y="1312.46" type="qcurve" smooth="yes"/>
      <point x="1013.46" y="1312.46"/>
      <point x="1201.5507257764525" y="1205.5699137912654"/>
      <point x="1212.96" y="1110.0" type="qcurve"/>
      <point x="812.96" y="840.0" type="line"/>
      <point x="870.96" y="685.5" type="line"/>
      <point x="1125.193352484634" y="656.4625766213654"/>
      <point x="1334.96" y="529.8941176470588"/>
      <point x="1334.96" y="432.7" type="qcurve" smooth="yes"/>
      <point x="1334.96" y="392.7" type="line" smooth="yes"/>
      <point x="1334.96" y="276.19"/>
      <point x="1073.2933333333333" y="148.08"/>
      <point x="863.96" y="148.08" type="qcurve" smooth="yes"/>
      <point x="813.96" y="148.08"/>
      <point x="696.96" y="158.08"/>
      <point x="663.96" y="163.08" type="qcurve"/>
      <point x="631.96" y="-4.0" type="line"/>
      <point x="676.96" y="-10.0"/>
      <point x="813.96" y="-20.0"/>
      <point x="876.96" y="-20.0" type="qcurve" smooth="yes"/>
      <point x="1186.1186206896552" y="-20.0"/>
      <point x="1548.88" y="211.476"/>
      <point x="1548.88" y="392.7" type="qcurve" smooth="yes"/>
      <point x="1548.88" y="432.7" type="line" smooth="yes"/>
      <point x="1548.88" y="581.614705882353"/>
      <point x="1271.8377327630155" y="780.0054655909894"/>
      <point x="1053.88" y="810.0" type="qcurve"/>
      <point x="1053.88" y="820.0" type="line"/>
      <point x="1426.88" y="1050.0" type="line"/>
      <point x="1426.88" y="1070.0" type="line" smooth="yes"/>
      <point x="1426.88" y="1250.0"/>
      <point x="1098.2055696202533" y="1486.0"/>
      <point x="813.96" y="1486.0" type="qcurve" smooth="yes"/>
      <point x="530.6800000000001" y="1486.0"/>
      <point x="170.0" y="1255.439461883408"/>
      <point x="170.0" y="1031.0" type="qcurve" smooth="yes"/>
    </contour>
  </outline>
</glyph>
<glyph name="trademark" format="1">
  <advance width="1915.24"/>
  <unicode hex="2122"/>
  <outline>
    <contour>
      <point x="276.0" y="820.0" type="line"/>
      <point x="446.24" y="820.0" type="line"/>
      <point x="446.24" y="1307.0" type="line"/>
      <point x="724.24" y="1307.0" type="line"/>
      <point x="724.24" y="1456.0" type="line"/>
      <point x="-1.0" y="1456.0" type="line"/>
      <point x="-1.0" y="1307.0" type="line"/>
      <point x="276.0" y="1307.0" type="line"/>
    </contour>
    <contour>
      <point x="811.24" y="820.0" type="line"/>
      <point x="953.24" y="820.0" type="line"/>
      <point x="953.24" y="1272.0" type="line"/>
      <point x="1231.24" y="820.0" type="line"/>
      <point x="1373.24" y="820.0" type="line"/>
      <point x="1653.24" y="1272.0" type="line"/>
      <point x="1653.24" y="820.0" type="line"/>
      <point x="1805.24" y="820.0" type="line"/>
      <point x="1805.24" y="1456.0" type="line"/>
      <point x="1608.24" y="1456.0" type="line"/>
      <point x="1309.24" y="959.0" type="line"/>
      <point x="1009.24" y="1456.0" type="line"/>
      <point x="811.24" y="1456.0" type="line"/>
    </contour>
  </outline>
</glyph>
<glyph name="f_f_i" format="1">
  <advance width="2189.44"/>
  <unicode hex="FB03"/>
  <outline>
    <contour>
      <point x="239.0" y="0.0" type="line"/>
      <point x="443.48" y="0.0" type="line"/>
      <point x="443.48" y="964.6899999999999" type="line"/>
      <point x="443.48" y="986.6899999999999" type="line"/>
      <point x="443.48" y="1172.8" type="line" smooth="yes"/>
      <point x="443.48" y="1281.9"/>
      <point x="618.48" y="1391.0"/>
      <point x="785.48" y="1391.0" type="qcurve" smooth="yes"/>
      <point x="861.9200000000001" y="1391.0"/>
      <point x="1015.5600000000001" y="1369.1"/>
      <point x="1078.52" y="1347.74" type="qcurve"/>
      <point x="1108.76" y="1511.47" type="line"/>
      <point x="1030.48" y="1534.55"/>
      <point x="862.36" y="1556.0"/>
      <point x="779.48" y="1556.0" type="qcurve" smooth="yes"/>
      <point x="525.08" y="1556.0"/>
      <point x="239.0" y="1360.31"/>
      <point x="239.0" y="1172.8" type="qcurve" smooth="yes"/>
    </contour>
    <contour>
      <point x="25.0" y="899.38" type="line"/>
      <point x="883.48" y="899.38" type="line"/>
      <point x="883.48" y="1052.0" type="line"/>
      <point x="393.24" y="1052.0" type="line"/>
      <point x="335.24" y="1052.0" type="line"/>
      <point x="25.0" y="1052.0" type="line"/>
    </contour>
    <contour>
      <point x="1040.48" y="0.0" type="line"/>
      <point x="1245.96" y="0.0" type="line"/>
      <point x="1245.96" y="964.6899999999999" type="line"/>
      <point x="1245.96" y="986.6899999999999" type="line"/>
      <point x="1245.96" y="1172.8" type="line" smooth="yes"/>
      <point x="1245.96" y="1281.9"/>
      <point x="1403.96" y="1391.0"/>
      <point x="1563.96" y="1391.0" type="qcurve" smooth="yes"/>
      <point x="1647.96" y="1391.0"/>
      <point x="1810.96" y="1360.0"/>
      <point x="1882.96" y="1335.0" type="qcurve"/>
      <point x="1913.96" y="1496.0" type="line"/>
      <point x="1830.76" y="1524.36"/>
      <point x="1647.52" y="1556.0"/>
      <point x="1557.96" y="1556.0" type="qcurve" smooth="yes"/>
      <point x="1315.56" y="1556.0"/>
      <point x="1040.48" y="1360.31"/>
      <point x="1040.48" y="1172.8" type="qcurve" smooth="yes"/>
    </contour>
    <contour>
      <point x="838.28" y="899.38" type="line"/>
      <point x="1658.76" y="899.38" type="line"/>
      <point x="1658.76" y="1052.0" type="line"/>
      <point x="1206.52" y="1052.0" type="line"/>
      <point x="1148.52" y="1052.0" type="line"/>
      <point x="838.28" y="1052.0" type="line"/>
    </contour>
    <contour>
      <point x="1844.96" y="0.0" type="line"/>
      <point x="2049.44" y="0.0" type="line"/>
      <point x="2049.44" y="1052.0" type="line"/>
      <point x="1844.96" y="1052.0" type="line"/>
    </contour>
  </outline>
</glyph>
<glyph name="seven.pnum" format="1">
  <advance width="1414.72"/>
  <outline>
    <contour>
      <point x="400.36" y="0.0" type="line"/>
      <point x="620.84" y="0.0" type="line"/>
      <point x="1323.6" y="1337.96" type="line"/>
      <point x="1323.6" y="1456.0" type="line"/>
      <point x="72.96" y="1456.0" type="line"/>
      <point x="72.96" y="1285.24" type="line"/>
      <point x="1095.16" y="1285.24" type="line"/>
    </contour>
  </outline>
</glyph>
